REM DIRINDEX 1\2,1\3,1\4,1\5,1\6
REM DIRNAME folder01,folder02,folder03,folder04,folder05,folder06
TITLE ""
FILE "Disc6Track04.mp3" MP3
  TRACK 01 AUDIO
    TITLE "3:cjc030_10426"
    INDEX 01 00:00:00
  TRACK 02 AUDIO
    TITLE "0:"
    INDEX 01 00:01:01
  TRACK 03 AUDIO
    TITLE "4:cjc030_10427"
    INDEX 01 00:01:07
  TRACK 04 AUDIO
    TITLE "0:"
    INDEX 01 00:03:02
  TRACK 05 AUDIO
    TITLE "5:cjc030_10428"
    INDEX 01 00:03:10
  TRACK 06 AUDIO
    TITLE "0:"
    INDEX 01 00:04:13
  TRACK 07 AUDIO
    TITLE "6:cjc030_10429"
    INDEX 01 00:04:29
  TRACK 08 AUDIO
    TITLE "0:"
    INDEX 01 00:08:26
  TRACK 09 AUDIO
    TITLE "3:cjc030_10430"
    INDEX 01 00:09:00
  TRACK 10 AUDIO
    TITLE "0:"
    INDEX 01 00:10:16
  TRACK 11 AUDIO
    TITLE "4:cjc030_10431"
    INDEX 01 00:10:23
  TRACK 12 AUDIO
    TITLE "0:"
    INDEX 01 00:12:42
  TRACK 13 AUDIO
    TITLE "5:cjc030_10432"
    INDEX 01 00:12:52
  TRACK 14 AUDIO
    TITLE "0:"
    INDEX 01 00:13:63
  TRACK 15 AUDIO
    TITLE "6:cjc030_10433"
    INDEX 01 00:14:06
  TRACK 16 AUDIO
    TITLE "0:"
    INDEX 01 00:19:50
  TRACK 17 AUDIO
    TITLE "3:cjc030_10434"
    INDEX 01 00:20:26
  TRACK 18 AUDIO
    TITLE "0:"
    INDEX 01 00:21:35
  TRACK 19 AUDIO
    TITLE "4:cjc030_10435"
    INDEX 01 00:21:41
  TRACK 20 AUDIO
    TITLE "0:"
    INDEX 01 00:24:08
  TRACK 21 AUDIO
    TITLE "5:cjc030_10436"
    INDEX 01 00:24:16
  TRACK 22 AUDIO
    TITLE "0:"
    INDEX 01 00:25:23
  TRACK 23 AUDIO
    TITLE "6:cjc030_10437"
    INDEX 01 00:25:39
  TRACK 24 AUDIO
    TITLE "0:"
    INDEX 01 00:29:58
  TRACK 25 AUDIO
    TITLE "3:cjc030_10438"
    INDEX 01 00:30:30
  TRACK 26 AUDIO
    TITLE "0:"
    INDEX 01 00:31:45
  TRACK 27 AUDIO
    TITLE "4:cjc030_10439"
    INDEX 01 00:31:53
  TRACK 28 AUDIO
    TITLE "0:"
    INDEX 01 00:33:17
  TRACK 29 AUDIO
    TITLE "5:cjc030_10440"
    INDEX 01 00:33:28
  TRACK 30 AUDIO
    TITLE "0:"
    INDEX 01 00:34:42
  TRACK 31 AUDIO
    TITLE "3:cjc030_10441"
    INDEX 01 00:35:19
  TRACK 32 AUDIO
    TITLE "0:"
    INDEX 01 00:36:38
  TRACK 33 AUDIO
    TITLE "4:cjc030_10442"
    INDEX 01 00:36:46
  TRACK 34 AUDIO
    TITLE "0:"
    INDEX 01 00:38:06
  TRACK 35 AUDIO
    TITLE "5:cjc030_10443"
    INDEX 01 00:38:16
  TRACK 36 AUDIO
    TITLE "0:"
    INDEX 01 00:39:31
  TRACK 37 AUDIO
    TITLE "3:cjc030_10444"
    INDEX 01 00:40:15
  TRACK 38 AUDIO
    TITLE "0:"
    INDEX 01 00:41:20
  TRACK 39 AUDIO
    TITLE "4:cjc030_10445"
    INDEX 01 00:41:28
  TRACK 40 AUDIO
    TITLE "0:"
    INDEX 01 00:44:36
  TRACK 41 AUDIO
    TITLE "5:cjc030_10446"
    INDEX 01 00:44:44
  TRACK 42 AUDIO
    TITLE "0:"
    INDEX 01 00:45:51
  TRACK 43 AUDIO
    TITLE "6:cjc030_10447"
    INDEX 01 00:45:65
  TRACK 44 AUDIO
    TITLE "0:"
    INDEX 01 00:50:66
  TRACK 45 AUDIO
    TITLE "3:cjc030_10448"
    INDEX 01 00:51:40
  TRACK 46 AUDIO
    TITLE "0:"
    INDEX 01 00:52:37
  TRACK 47 AUDIO
    TITLE "4:cjc030_10449"
    INDEX 01 00:52:47
  TRACK 48 AUDIO
    TITLE "0:"
    INDEX 01 00:54:52
  TRACK 49 AUDIO
    TITLE "5:cjc030_10450"
    INDEX 01 00:54:60
  TRACK 50 AUDIO
    TITLE "0:"
    INDEX 01 00:55:57
  TRACK 51 AUDIO
    TITLE "6:cjc030_10451"
    INDEX 01 00:55:73
  TRACK 52 AUDIO
    TITLE "0:"
    INDEX 01 00:58:66
  TRACK 53 AUDIO
    TITLE "3:cjc030_10452"
    INDEX 01 00:59:39
  TRACK 54 AUDIO
    TITLE "0:"
    INDEX 01 01:00:43
  TRACK 55 AUDIO
    TITLE "4:cjc030_10453"
    INDEX 01 01:00:49
  TRACK 56 AUDIO
    TITLE "0:"
    INDEX 01 01:02:67
  TRACK 57 AUDIO
    TITLE "5:cjc030_10454"
    INDEX 01 01:03:04
  TRACK 58 AUDIO
    TITLE "0:"
    INDEX 01 01:04:03
  TRACK 59 AUDIO
    TITLE "3:cjc030_10455"
    INDEX 01 01:04:56
  TRACK 60 AUDIO
    TITLE "0:"
    INDEX 01 01:05:73
  TRACK 61 AUDIO
    TITLE "4:cjc030_10456"
    INDEX 01 01:06:06
  TRACK 62 AUDIO
    TITLE "0:"
    INDEX 01 01:07:10
  TRACK 63 AUDIO
    TITLE "5:cjc030_10457"
    INDEX 01 01:07:19
  TRACK 64 AUDIO
    TITLE "0:"
    INDEX 01 01:08:31
  TRACK 65 AUDIO
    TITLE "3:cjc030_10458"
    INDEX 01 01:09:12
  TRACK 66 AUDIO
    TITLE "0:"
    INDEX 01 01:10:14
  TRACK 67 AUDIO
    TITLE "4:cjc030_10459"
    INDEX 01 01:10:22
  TRACK 68 AUDIO
    TITLE "0:"
    INDEX 01 01:12:71
  TRACK 69 AUDIO
    TITLE "5:cjc030_10460"
    INDEX 01 01:13:08
  TRACK 70 AUDIO
    TITLE "0:"
    INDEX 01 01:14:06
  TRACK 71 AUDIO
    TITLE "6:cjc030_10461"
    INDEX 01 01:14:21
  TRACK 72 AUDIO
    TITLE "0:"
    INDEX 01 01:15:46
  TRACK 73 AUDIO
    TITLE "3:cjc030_10462"
    INDEX 01 01:16:18
  TRACK 74 AUDIO
    TITLE "0:"
    INDEX 01 01:17:26
  TRACK 75 AUDIO
    TITLE "4:cjc030_10463"
    INDEX 01 01:17:33
  TRACK 76 AUDIO
    TITLE "0:"
    INDEX 01 01:19:38
  TRACK 77 AUDIO
    TITLE "5:cjc030_10464"
    INDEX 01 01:19:50
  TRACK 78 AUDIO
    TITLE "0:"
    INDEX 01 01:20:53
  TRACK 79 AUDIO
    TITLE "6:cjc030_10465"
    INDEX 01 01:20:67
  TRACK 80 AUDIO
    TITLE "0:"
    INDEX 01 01:25:04
  TRACK 81 AUDIO
    TITLE "3:cjc030_10466"
    INDEX 01 01:25:53
  TRACK 82 AUDIO
    TITLE "0:"
    INDEX 01 01:26:70
  TRACK 83 AUDIO
    TITLE "4:cjc030_10467"
    INDEX 01 01:27:03
  TRACK 84 AUDIO
    TITLE "0:"
    INDEX 01 01:28:16
  TRACK 85 AUDIO
    TITLE "5:cjc030_10468"
    INDEX 01 01:28:27
  TRACK 86 AUDIO
    TITLE "0:"
    INDEX 01 01:29:41
  TRACK 87 AUDIO
    TITLE "3:cjc030_10469"
    INDEX 01 01:30:24
  TRACK 88 AUDIO
    TITLE "0:"
    INDEX 01 01:31:39
  TRACK 89 AUDIO
    TITLE "4:cjc030_10470"
    INDEX 01 01:31:49
  TRACK 90 AUDIO
    TITLE "0:"
    INDEX 01 01:33:52
  TRACK 91 AUDIO
    TITLE "5:cjc030_10471"
    INDEX 01 01:33:62
  TRACK 92 AUDIO
    TITLE "0:"
    INDEX 01 01:35:02
